<svg xmlns="http://www.w3.org/2000/svg" width="100" height="100" viewBox="0 0 105 105"><path fill="#003E95" d="M100 50c0 27.614-22.386 50-50 50S0 77.614 0 50 22.386 0 50 0s50 22.386 50 50zM50 7.143C26.332 7.143 7.143 26.33 7.143 50S26.332 92.856 50 92.856 92.857 73.669 92.857 50 73.669 7.143 50 7.143z"/><path fill="#003E95" d="M37.931 56.895c0 1.797-.281 3.328-.844 4.593-.563 1.266-1.307 2.297-2.232 3.097-.925.799-2.018 1.38-3.274 1.746a13.78 13.78 0 0 1-3.871.549h-8.831c-.795 0-1.555-.199-2.284-.599s-1.091-1.064-1.091-1.998l-.126-29.155c0-.732.232-1.397.701-1.996.468-.599 1.169-.899 2.104-.899h9.321c1.201 0 2.404.167 3.606.5a9.583 9.583 0 0 1 3.209 1.547 7.879 7.879 0 0 1 2.254 2.646c.567 1.065.853 2.329.853 3.793 0 2.13-.601 3.812-1.799 5.044s-2.431 2.179-3.695 2.845v.1c.532.067 1.148.268 1.849.601.699.333 1.364.831 1.999 1.496.632.666 1.147 1.499 1.549 2.497.401.998.602 2.194.602 3.593zm-7.434-14.584c0-1.736-.559-2.906-1.673-3.508-1.116-.601-2.451-.902-4.006-.902h-2.636v8.819h2.636c1.488 0 2.805-.333 3.955-1.002 1.149-.667 1.724-1.803 1.724-3.407zm.882 13.884c0-1.002-.183-1.804-.545-2.405a4.295 4.295 0 0 0-1.438-1.455c-.594-.366-1.24-.618-1.933-.752s-1.336-.201-1.931-.201H22.56v9.827h2.973c3.897 0 5.846-1.671 5.846-5.014zM61.05 64.334c-2.059 1.948-4.779 2.923-8.166 2.923-3.783 0-6.655-.957-8.614-2.874-1.959-1.918-2.938-4.939-2.938-9.069v-20.58c0-.866.347-1.516 1.04-1.949.693-.433 1.5-.649 2.425-.649.792 0 1.565.217 2.325.649.76.434 1.14 1.083 1.14 1.949v19.881c0 2.065.382 3.682 1.146 4.847.764 1.166 1.911 1.748 3.438 1.748 1.661 0 2.823-.598 3.488-1.797s.998-2.798.998-4.798V34.733c0-.866.333-1.516 1-1.949.666-.433 1.467-.649 2.402-.649.799 0 1.566.217 2.301.649.732.434 1.101 1.083 1.101 1.949v20.681c.001 3.996-1.029 6.971-3.086 8.92zM85.934 56.699c0 3.254-1.077 5.827-3.227 7.719-2.151 1.894-4.758 2.839-7.821 2.839-1.199 0-2.397-.147-3.597-.445-1.199-.297-2.166-.611-2.898-.942-.799-.396-1.415-.843-1.848-1.339-.434-.496-.484-1.271-.15-2.329.333-.994.766-1.74 1.3-2.24.531-.5 1.266-.516 2.199-.051.531.268 1.264.551 2.196.851a9.12 9.12 0 0 0 2.798.448c1.132 0 2.163-.281 3.097-.849.933-.564 1.399-1.446 1.399-2.646 0-1.797-.969-3.229-2.905-4.293l-2.804-1.599c-2.004-1.13-3.591-2.445-4.76-3.943-1.17-1.496-1.753-3.477-1.753-5.941 0-3.195 1.026-5.675 3.077-7.439 2.052-1.764 4.575-2.646 7.571-2.646 2.265 0 4.195.435 5.794 1.305.732.335 1.284.754 1.649 1.254.366.502.383 1.288.05 2.358-.268.937-.667 1.62-1.199 2.053-.533.433-1.266.451-2.196.049a13.309 13.309 0 0 0-1.9-.748 7.56 7.56 0 0 0-2.297-.351c-1.201 0-2.166.317-2.898.947s-1.099 1.443-1.099 2.439c0 .931.3 1.712.902 2.342a9.38 9.38 0 0 0 2.104 1.642l2.702 1.494a15.29 15.29 0 0 1 4.609 3.884c1.269 1.596 1.905 3.654 1.905 6.177z"/></svg>